<svg width="188" height="25" viewBox="0 0 188 25" fill="none" xmlns="http://www.w3.org/2000/svg">
<path d="M0 4.16943V0.613152H15.1285C17.0926 0.613152 18.6848 2.20535 18.6848 4.16943H11.4464V24.032H7.23835V4.16943H0Z" fill="#0E69F0"/>
<path d="M28.6205 24.3751C26.8595 24.3751 25.3387 24.0091 24.058 23.2773C22.7849 22.5378 21.8053 21.4934 21.1192 20.1441C20.4331 18.7872 20.09 17.1901 20.09 15.3529C20.09 13.5461 20.4331 11.9605 21.1192 10.5959C21.8129 9.2237 22.781 8.15643 24.0236 7.3941C25.2663 6.62414 26.7261 6.23917 28.4032 6.23917C29.4858 6.23917 30.5073 6.4145 31.4678 6.76517C32.436 7.10822 33.2898 7.64186 34.0293 8.36607C34.7764 9.09029 35.3633 10.0127 35.7903 11.1333C36.2172 12.2463 36.4306 13.5728 36.4306 15.1127V16.382H22.034V13.5919H32.4627C32.455 12.799 32.2835 12.0939 31.9481 11.4764C31.6127 10.8513 31.1438 10.3596 30.5416 10.0013C29.947 9.64298 29.2532 9.46383 28.4604 9.46383C27.6142 9.46383 26.871 9.66966 26.2306 10.0813C25.5902 10.4854 25.0909 11.019 24.7326 11.6822C24.3819 12.3378 24.2028 13.0582 24.1952 13.8434V16.2791C24.1952 17.3006 24.3819 18.1773 24.7555 18.9091C25.129 19.6333 25.6512 20.1899 26.3221 20.5786C26.9929 20.9598 27.7781 21.1504 28.6777 21.1504C29.2799 21.1504 29.825 21.0665 30.3129 20.8988C30.8008 20.7235 31.2239 20.4681 31.5822 20.1327C31.9405 19.7973 32.2111 19.3818 32.3941 18.8863L36.2591 19.3208C36.0151 20.3423 35.5501 21.2342 34.864 21.9966C34.1855 22.7513 33.3165 23.3383 32.2568 23.7576C31.1972 24.1692 29.9851 24.3751 28.6205 24.3751Z" fill="#0E69F0"/>
<path d="M46.2749 24.3865C45.1619 24.3865 44.1594 24.1883 43.2675 23.7919C42.3832 23.3878 41.6818 22.7932 41.1634 22.008C40.6527 21.2228 40.3973 20.2547 40.3973 19.1035C40.3973 18.1125 40.5803 17.293 40.9462 16.645C41.3121 15.997 41.8114 15.4786 42.4442 15.0898C43.0769 14.7011 43.7897 14.4076 44.5825 14.2094C45.3829 14.0035 46.2101 13.8549 47.0639 13.7634C48.093 13.6567 48.9278 13.5614 49.5682 13.4775C50.2085 13.386 50.6735 13.2488 50.9632 13.0659C51.2605 12.8753 51.4092 12.5818 51.4092 12.1854V12.1167C51.4092 11.2553 51.1538 10.5883 50.643 10.1156C50.1323 9.64298 49.3966 9.40666 48.4361 9.40666C47.4222 9.40666 46.6179 9.62773 46.0233 10.0699C45.4363 10.512 45.0399 11.0342 44.8341 11.6365L40.969 11.0876C41.274 10.0203 41.7771 9.12841 42.4785 8.41181C43.1798 7.6876 44.0374 7.14634 45.0513 6.78805C46.0652 6.42213 47.1859 6.23917 48.4132 6.23917C49.2594 6.23917 50.1018 6.33827 50.9403 6.53648C51.7789 6.73468 52.5451 7.06248 53.2388 7.51988C53.9325 7.96966 54.489 8.58334 54.9083 9.36092C55.3352 10.1385 55.5486 11.1105 55.5486 12.2768V20.0526C55.5486 22.2504 53.767 24.032 51.5693 24.032V21.6192H51.4321C51.1805 22.1071 50.826 22.5645 50.3686 22.9914C49.9188 23.4107 49.3509 23.7499 48.6648 24.0091C47.9863 24.2607 47.1897 24.3865 46.2749 24.3865ZM47.3498 21.3448C48.1807 21.3448 48.9011 21.1809 49.511 20.8531C50.1208 20.5177 50.5897 20.0755 50.9175 19.5266C51.2529 18.9777 51.4206 18.3793 51.4206 17.7313V15.6616C51.291 15.7683 51.07 15.8674 50.7574 15.9589C50.4525 16.0504 50.1094 16.1304 49.7282 16.199C49.3471 16.2677 48.9697 16.3286 48.5962 16.382C48.2226 16.4354 47.8986 16.4811 47.6242 16.5192C47.0067 16.6031 46.454 16.7403 45.9661 16.9309C45.4782 17.1215 45.0933 17.3883 44.8112 17.7313C44.5291 18.0668 44.3881 18.5013 44.3881 19.0349C44.3881 19.7973 44.6664 20.3728 45.2229 20.7616C45.7794 21.1504 46.4883 21.3448 47.3498 21.3448Z" fill="#0E69F0"/>
<path d="M60.999 24.032V6.46787H64.9555V9.4524H65.1614C65.5273 8.44612 66.1333 7.66092 66.9795 7.09679C67.8257 6.52504 68.8358 6.23917 70.0098 6.23917C71.199 6.23917 72.2015 6.52885 73.0172 7.10822C73.8405 7.67997 74.4199 8.46136 74.7553 9.4524H74.9383C75.3271 8.47661 75.9827 7.69903 76.9051 7.11966C77.8351 6.53266 78.9367 6.23917 80.2098 6.23917C81.8259 6.23917 83.1448 6.74993 84.1663 7.77145C85.1878 8.79298 85.6986 10.2833 85.6986 12.2425V24.032H81.5477V12.8829C81.5477 11.7928 81.258 10.9961 80.6786 10.493C80.0993 9.98222 79.3903 9.72684 78.5517 9.72684C77.5531 9.72684 76.7717 10.0394 76.2076 10.6645C75.6511 11.282 75.3728 12.0863 75.3728 13.0773V24.032H71.3134V12.7114C71.3134 11.8042 71.0389 11.08 70.4901 10.5387C69.9488 9.99746 69.2398 9.72684 68.3632 9.72684C67.7685 9.72684 67.2273 9.8793 66.7394 10.1842C66.2515 10.4815 65.8627 10.9046 65.573 11.4535C65.2833 11.9948 65.1385 12.6275 65.1385 13.3517V24.032H60.999Z" fill="#0E69F0"/>
<path d="M100.911 7.03979V10.2416H90.5283V7.03979H100.911ZM93.1241 24.6039V5.38172C93.1241 4.2001 93.368 3.2167 93.8559 2.43149C94.3514 1.64629 95.0146 1.0593 95.8456 0.670506C96.6765 0.281716 97.599 0.0873208 98.6129 0.0873208C99.3294 0.0873208 99.966 0.144496 100.523 0.258847C101.079 0.373196 101.491 0.476111 101.757 0.567591L100.934 3.76939C100.759 3.71602 100.538 3.66266 100.271 3.6093C100.004 3.54831 99.7068 3.51782 99.379 3.51782C98.609 3.51782 98.064 3.70459 97.7438 4.07813C97.4312 4.44405 97.275 4.97006 97.275 5.65616V20.453C97.275 22.7455 95.4165 24.6039 93.1241 24.6039Z" fill="black" fill-opacity="0.87"/>
<path d="M105.441 24.6039V7.03979H109.581V24.6039H105.441ZM107.522 4.54697C106.867 4.54697 106.303 4.3297 105.83 3.89517C105.357 3.45302 105.121 2.9232 105.121 2.30571C105.121 1.6806 105.357 1.15078 105.83 0.716245C106.303 0.274093 106.867 0.0530167 107.522 0.0530167C108.186 0.0530167 108.75 0.274093 109.215 0.716245C109.687 1.15078 109.924 1.6806 109.924 2.30571C109.924 2.9232 109.687 3.45302 109.215 3.89517C108.75 4.3297 108.186 4.54697 107.522 4.54697Z" fill="black" fill-opacity="0.87"/>
<path d="M119.265 14.3124V24.6039H115.125V7.03979H119.082V10.0243H119.288C119.692 9.04092 120.336 8.25953 121.22 7.68015C122.112 7.10078 123.214 6.8111 124.525 6.8111C125.737 6.8111 126.793 7.07029 127.692 7.58867C128.6 8.10706 129.301 8.85796 129.796 9.84137C130.3 10.8248 130.547 12.0178 130.54 13.4205V24.6039H126.4V14.0609C126.4 12.8869 126.095 11.9683 125.485 11.305C124.883 10.6418 124.048 10.3102 122.981 10.3102C122.257 10.3102 121.613 10.4703 121.049 10.7905C120.492 11.103 120.054 11.5566 119.734 12.1512C119.421 12.7459 119.265 13.4663 119.265 14.3124Z" fill="black" fill-opacity="0.87"/>
<path d="M142.554 24.9127C141.174 24.9127 139.939 24.5582 138.849 23.8492C137.759 23.1403 136.897 22.1111 136.264 20.7618C135.632 19.4125 135.315 17.7734 135.315 15.8447C135.315 13.8932 135.636 12.2465 136.276 10.9048C136.924 9.55549 137.797 8.53778 138.895 7.85168C139.992 7.15796 141.216 6.8111 142.565 6.8111C143.594 6.8111 144.441 6.98643 145.104 7.3371C145.767 7.68015 146.293 8.09562 146.682 8.58352C147.071 9.06379 147.372 9.51737 147.585 9.94428H147.757V1.18508C150.049 1.18508 151.908 3.0435 151.908 5.33598V24.6039H147.837V21.8367H147.585C147.372 22.2636 147.063 22.7172 146.659 23.1974C146.255 23.6701 145.721 24.0741 145.058 24.4095C144.395 24.745 143.56 24.9127 142.554 24.9127ZM143.709 21.5165C144.585 21.5165 145.332 21.2802 145.95 20.8075C146.567 20.3273 147.036 19.6602 147.356 18.8064C147.677 17.9526 147.837 16.9577 147.837 15.8219C147.837 14.686 147.677 13.6988 147.356 12.8602C147.044 12.0216 146.579 11.3698 145.961 10.9048C145.351 10.4398 144.601 10.2073 143.709 10.2073C142.786 10.2073 142.016 10.4474 141.399 10.9277C140.781 11.408 140.316 12.0712 140.004 12.9174C139.691 13.7636 139.535 14.7317 139.535 15.8219C139.535 16.9196 139.691 17.8992 140.004 18.7607C140.324 19.6145 140.793 20.2891 141.41 20.7847C142.035 21.2725 142.801 21.5165 143.709 21.5165Z" fill="black" fill-opacity="0.87"/>
<path d="M165.382 24.947C163.621 24.947 162.101 24.5811 160.82 23.8492C159.547 23.1098 158.567 22.0654 157.881 20.716C157.195 19.3591 156.852 17.762 156.852 15.9248C156.852 14.1181 157.195 12.5324 157.881 11.1678C158.575 9.79563 159.543 8.72836 160.786 7.96603C162.028 7.19607 163.488 6.8111 165.165 6.8111C166.248 6.8111 167.269 6.98643 168.23 7.3371C169.198 7.68015 170.052 8.21379 170.791 8.938C171.538 9.66222 172.125 10.5846 172.552 11.7053C172.979 12.8183 173.193 14.1447 173.193 15.6846V16.9539H158.796V14.1638H169.225C169.217 13.371 169.045 12.6658 168.71 12.0483C168.375 11.4232 167.906 10.9315 167.304 10.5732C166.709 10.2149 166.015 10.0358 165.222 10.0358C164.376 10.0358 163.633 10.2416 162.993 10.6533C162.352 11.0573 161.853 11.5909 161.495 12.2541C161.144 12.9098 160.965 13.6302 160.957 14.4154V16.851C160.957 17.8725 161.144 18.7492 161.517 19.4811C161.891 20.2053 162.413 20.7618 163.084 21.1506C163.755 21.5317 164.54 21.7223 165.44 21.7223C166.042 21.7223 166.587 21.6385 167.075 21.4707C167.563 21.2954 167.986 21.04 168.344 20.7046C168.702 20.3692 168.973 19.9537 169.156 19.4582L173.021 19.8927C172.777 20.9142 172.312 21.8062 171.626 22.5685C170.947 23.3232 170.078 23.9102 169.019 24.3295C167.959 24.7412 166.747 24.947 165.382 24.947Z" fill="black" fill-opacity="0.87"/>
<path d="M177.983 24.6039V7.03979H181.996V9.96715H182.179C182.499 8.95325 183.048 8.17186 183.826 7.62298C184.611 7.06648 185.507 6.78823 186.513 6.78823C186.742 6.78823 186.997 6.79966 187.279 6.82253C187.569 6.83778 187.809 6.86446 188 6.90257V10.7104C187.824 10.6494 187.546 10.5961 187.165 10.5503C186.791 10.497 186.429 10.4703 186.079 10.4703C185.324 10.4703 184.645 10.6342 184.043 10.962C183.448 11.2822 182.98 11.7281 182.637 12.2999C182.294 12.8716 182.122 13.5311 182.122 14.2781V20.4645C182.122 22.7506 180.269 24.6039 177.983 24.6039Z" fill="black" fill-opacity="0.87"/>
</svg>
